<svg width="1200" height="760" viewBox="0 0 1200 760" fill="none" xmlns="http://www.w3.org/2000/svg" role="img" aria-labelledby="title desc">
  <title id="title">Agent, Environment, Sensors, and Actuators</title>
  <desc id="desc">A simplified agent-environment interaction loop showing observations entering the agent through sensors and actions leaving through actuators.</desc>

  <rect width="1200" height="760" rx="28" fill="#FFFDF8"/>

  <rect x="84" y="122" width="660" height="432" rx="28" fill="#DCECF8" stroke="#23212B" stroke-width="4"/>
  <rect x="840" y="158" width="220" height="360" rx="26" fill="#E8F8BA" stroke="#23212B" stroke-width="4"/>
  <rect x="350" y="278" width="170" height="124" fill="#FFFDFC" stroke="#23212B" stroke-width="3"/>

  <text x="132" y="190" fill="#161311" font-family="Georgia, 'Times New Roman', serif" font-size="34" font-weight="700">Agent</text>
  <text x="388" y="336" fill="#161311" font-family="Georgia, 'Times New Roman', serif" font-size="28" font-weight="700">Decision</text>
  <text x="420" y="372" fill="#161311" font-family="Georgia, 'Times New Roman', serif" font-size="22">Core</text>

  <text x="118" y="640" fill="#6F6559" font-family="Georgia, 'Times New Roman', serif" font-size="17">
    A simplified version of the classical agent-environment interaction diagram.
  </text>
  <text x="118" y="668" fill="#6F6559" font-family="Georgia, 'Times New Roman', serif" font-size="17">
    Adapted from Russell and Norvig, Artificial Intelligence: A Modern Approach (3rd ed.).
  </text>

  <line x1="840" y1="340" x2="520" y2="340" stroke="#23212B" stroke-width="4"/>
  <polygon points="522,340 560,320 560,360" fill="#23212B"/>
  <text x="540" y="302" fill="#161311" font-family="Georgia, 'Times New Roman', serif" font-size="18">Percepts / Observations</text>

  <line x1="520" y1="476" x2="840" y2="476" stroke="#23212B" stroke-width="4"/>
  <polygon points="838,476 800,456 800,496" fill="#23212B"/>
  <text x="620" y="452" fill="#161311" font-family="Georgia, 'Times New Roman', serif" font-size="18">Actions</text>

  <line x1="435" y1="210" x2="435" y2="278" stroke="#23212B" stroke-width="4"/>
  <polygon points="435,276 417,240 453,240" fill="#23212B"/>
  <text x="360" y="258" fill="#161311" font-family="Georgia, 'Times New Roman', serif" font-size="18">Sensors</text>

  <line x1="435" y1="402" x2="435" y2="470" stroke="#23212B" stroke-width="4"/>
  <polygon points="435,468 417,432 453,432" fill="#23212B"/>
  <text x="340" y="442" fill="#161311" font-family="Georgia, 'Times New Roman', serif" font-size="18">Actuators</text>

  <g transform="translate(950 338) rotate(90)">
    <text x="0" y="0" text-anchor="middle" dominant-baseline="middle" fill="#161311" font-family="Georgia, 'Times New Roman', serif" font-size="28" font-weight="700">Environment</text>
  </g>
</svg>
